<svg width="114.31" height="122.88" xmlns="http://www.w3.org/2000/svg" data-name="Layer 1">
 <title>upload-file</title>

 <g>
  <title>Layer 1</title>
  <path class="cls-1" d="m69.88,71.65l35.78,0a8.68,8.68 0 0 1 8.65,8.66l0,33.92a8.67,8.67 0 0 1 -8.65,8.65l-35.78,0a8.67,8.67 0 0 1 -8.65,-8.65l0,-33.92a8.68,8.68 0 0 1 8.65,-8.66zm31.57,-11.99l-7,0l0,-51.56a1.17,1.17 0 0 0 -0.33,-0.82a1.2,1.2 0 0 0 -0.78,-0.28l-85.28,0a1.15,1.15 0 0 0 -0.82,0.33a1.13,1.13 0 0 0 -0.33,0.82l0,96.35a1.13,1.13 0 0 0 1.15,1.16l37.11,0l0,7l-37.07,0a8.16,8.16 0 0 1 -8.1,-8.21l0,-96.35a7.93,7.93 0 0 1 2.39,-5.71a8,8 0 0 1 5.71,-2.39l85.29,0a7.92,7.92 0 0 1 5.71,2.39a8,8 0 0 1 2.39,5.71c0,39.79 0,-9.25 0,51.56l-0.04,0zm-25.8,39.5a2.41,2.41 0 0 1 -2.08,-1c-1.1,-1.64 0.4,-3.26 1.43,-4.41c3,-3.23 9.61,-9.08 11.07,-10.79a2.4,2.4 0 0 1 3.76,0c1.51,1.76 8.53,8 11.33,11.1c1,1.1 2.18,2.59 1.16,4.1a2.42,2.42 0 0 1 -2.08,1l-5.24,0l0,9.4a3,3 0 0 1 -2.95,3l-8.23,0a3,3 0 0 1 -2.95,-3l0,-9.4l-5.22,0z" fill-rule="evenodd" id="svg_1"/>
  <text fill="#7f00ff" x="17.56956" y="31.10785" id="svg_2" stroke-width="0" font-size="24" font-family="sans-serif" text-anchor="start" xml:space="preserve" stroke="#4F80FF" transform="matrix(1.78071 0 0 2.99403 -22.1567 -26.3327)" font-weight="bold" font-style="normal">VUL</text>
  <text fill="#000000" stroke="#4F80FF" stroke-width="0" x="43.20764" y="43.56" id="svg_4" font-size="24" font-family="Noto Sans JP" text-anchor="start" xml:space="preserve"/>
 </g>
</svg>