<svg width="113.79" height="122.88" xmlns="http://www.w3.org/2000/svg" data-name="Layer 1">

 <title>upload-file</title>
 <g>
  <title>Layer 1</title>
  <path id="svg_1" fill-rule="evenodd" d="m65.59,67.32l38.82,0a9.41,9.41 0 0 1 9.38,9.38l0,36.79a9.41,9.41 0 0 1 -9.38,9.39l-38.82,0a9.41,9.41 0 0 1 -9.38,-9.39l0,-36.79a9.41,9.41 0 0 1 9.38,-9.38zm-5.59,-55.76l19.73,18.51l-19.73,0l0,-18.51zm-39.13,58.44a2.14,2.14 0 0 0 -2,2.23a2.1,2.1 0 0 0 2,2.22l24.8,0l0,-4.45l-24.8,0zm0,16a2.14,2.14 0 0 0 -2,2.23a2.1,2.1 0 0 0 2,2.23l24.8,0l0,-4.55l-24.8,0.09zm0,-63.89a2.14,2.14 0 0 0 -2,2.23a2.1,2.1 0 0 0 2,2.23l12.6,0a2.14,2.14 0 0 0 2,-2.23a2.11,2.11 0 0 0 -2,-2.23l-12.6,0zm69.85,10.61a3.28,3.28 0 0 0 -2.39,-3.17l-29.1,-28.34a3.27,3.27 0 0 0 -2.54,-1.21l-50.78,0a5.91,5.91 0 0 0 -5.91,5.91l0,101.21a5.91,5.91 0 0 0 5.91,5.88l39.85,0l0,-6.6l-39.15,0l0,-99.83l46.76,0l0,26.79a3.32,3.32 0 0 0 3.32,3.31l27.43,0l0,21.62l6.6,0l0,-25.57zm6.45,65.1a2.4,2.4 0 0 0 2.06,-1c1.08,-1.62 -0.4,-3.22 -1.42,-4.35c-2.91,-3.19 -9.49,-9 -10.92,-10.66a2.37,2.37 0 0 0 -3.72,0c-1.49,1.73 -8.43,7.86 -11.19,11c-1,1.08 -2.15,2.56 -1.15,4a2.42,2.42 0 0 0 2.07,1l5.17,0l0,9.27a2.92,2.92 0 0 0 2.93,2.92l8.1,0a2.92,2.92 0 0 0 2.9,-2.91l0,-9.27l5.17,0z" class="cls-1"/>
  <text transform="matrix(1.8538 0 0 1.61831 -13.4486 -19.2578)" stroke="#000" font-style="normal" font-weight="bold" xml:space="preserve" text-anchor="start" font-family="sans-serif" font-size="24" id="svg_2" y="52.65552" x="11.98411" stroke-width="0" fill="#7b00ff">VUL</text>
 </g>
</svg>